<?xml version="1.0" standalone="no"?>
<!DOCTYPE svg PUBLIC "-//W3C//DTD SVG 20010904//EN"
 "http://www.w3.org/TR/2001/REC-SVG-20010904/DTD/svg10.dtd">
<svg version="1.0" xmlns="http://www.w3.org/2000/svg"
 width="15px" height="13px" viewBox="0 0 1280.000000 1170.000000"
 preserveAspectRatio="xMidYMid meet">
<g transform="translate(0.000000,1170.000000) scale(0.100000,-0.100000)"
fill="#ffffff" stroke="none">
<path d="M3565 11690 c-38 -4 -124 -13 -190 -20 -368 -35 -751 -133 -1096
-281 -235 -100 -371 -174 -599 -325 -930 -617 -1540 -1625 -1649 -2724 -37
-374 -37 -387 -11 -675 76 -835 381 -1562 911 -2170 48 -55 1298 -1310 2778
-2790 l2691 -2690 2691 2690 c1480 1480 2730 2735 2778 2790 263 302 473 638
631 1010 64 150 154 430 194 605 77 336 119 773 97 1003 -6 67 -16 169 -22
227 -109 1099 -719 2107 -1649 2724 -228 151 -364 225 -599 325 -277 119 -577
205 -886 255 -86 14 -138 20 -422 47 -229 22 -666 -20 -1003 -97 -174 -40
-488 -141 -627 -202 -416 -184 -776 -418 -1078 -703 -52 -49 -99 -89 -105 -89
-6 0 -53 40 -105 89 -302 285 -662 519 -1078 703 -139 61 -453 162 -627 202
-334 76 -816 121 -1025 96z"/>
</g>
</svg>
